<?xml version="1.0" encoding="utf-8"?>
<!-- Generator: Adobe Illustrator 23.0.3, SVG Export Plug-In . SVG Version: 6.00 Build 0)  -->
<svg version="1.1" id="Capa_1" xmlns="http://www.w3.org/2000/svg" xmlns:xlink="http://www.w3.org/1999/xlink" x="0px" y="0px"
	 viewBox="0 0 1200 1200" enable-background="new 0 0 1200 1200" xml:space="preserve">
<path fill="#51D4ED" d="M1148.946,719.254c5.913,56.581-13.311,114.128-51.157,156.458c-18.461,20.648-41.073,37.435-66.239,49.023
	c-34.768,16.011-78.487,9.47-116.129,9.632c-156.725,0.676-313.45,1.352-470.176,2.028c-38.442,0.166-76.884,0.331-115.326,0.497
	c-37.881,0.163-82.597,6.53-119.112-4.006c-52.921-15.27-100.513-48.787-130.278-95.437c-27.259-42.722-40.48-97.834-21.833-146.568
	c26.199-68.47,102.068-103.228,170.887-108.77c3.867-0.311,8.242-4.12,6.48-8.506c-47.475-118.177,9.689-256.014,130.399-300.635
	c119.232-40.394,249.111,25.423,289.271,144.286c1.324,3.918,6.031,6.495,9.871,4.016c37.335-24.104,87.389-31.14,129.03-15.127
	c56.345,21.667,88.622,78.503,88.115,137.262c-0.038,4.37,4.325,7.631,8.506,6.48
	C1008.419,517.614,1135.976,595.149,1148.946,719.254z"/>
</svg>
